<svg width="30" height="20" viewBox="0 0 30 20" fill="none" xmlns="http://www.w3.org/2000/svg">
<g filter="url(#filter0_d_464_546)">
<path d="M14.9539 0.00391999C15.3183 0.00314181 15.6714 0.14189 15.952 0.39608L25.3096 8.92133C25.6281 9.21074 25.8284 9.62663 25.8664 10.0775C25.9045 10.5283 25.7771 10.9773 25.5124 11.3255C25.2477 11.6737 24.8673 11.8926 24.4549 11.9342C24.0425 11.9758 23.6318 11.8365 23.3133 11.5471L14.9539 3.90848L6.59437 11.2743C6.43484 11.4159 6.25129 11.5217 6.05425 11.5855C5.85721 11.6493 5.65057 11.67 5.44622 11.6462C5.24187 11.6224 5.04383 11.5547 4.86348 11.447C4.68313 11.3393 4.52403 11.1937 4.39533 11.0185C4.2525 10.8432 4.14433 10.6376 4.07759 10.4144C4.01085 10.1913 3.98698 9.95545 4.00748 9.72175C4.02798 9.48805 4.0924 9.2615 4.19671 9.05628C4.30102 8.85107 4.44298 8.67162 4.61368 8.52917L13.9713 0.293779C14.26 0.0797676 14.6059 -0.022288 14.9539 0.00391999Z" fill="#414042"/>
</g>
<defs>
<filter id="filter0_d_464_546" x="0" y="-0.00012207" width="29.873" height="19.9415" filterUnits="userSpaceOnUse" color-interpolation-filters="sRGB">
<feFlood flood-opacity="0" result="BackgroundImageFix"/>
<feColorMatrix in="SourceAlpha" type="matrix" values="0 0 0 0 0 0 0 0 0 0 0 0 0 0 0 0 0 0 127 0" result="hardAlpha"/>
<feOffset dy="4"/>
<feGaussianBlur stdDeviation="2"/>
<feComposite in2="hardAlpha" operator="out"/>
<feColorMatrix type="matrix" values="0 0 0 0 0 0 0 0 0 0 0 0 0 0 0 0 0 0 0.25 0"/>
<feBlend mode="normal" in2="BackgroundImageFix" result="effect1_dropShadow_464_546"/>
<feBlend mode="normal" in="SourceGraphic" in2="effect1_dropShadow_464_546" result="shape"/>
</filter>
</defs>
</svg>
