<svg width="8" height="19" viewBox="0 0 8 19" fill="none" xmlns="http://www.w3.org/2000/svg">
<mask id="path-1-inside-1_410_135" fill="white">
<path d="M2.4922 0C2.41051 0.000146319 2.32903 0.00292656 2.24797 0.00863337C2.1667 0.0141938 2.08606 0.0225346 2.00605 0.0336555C1.92605 0.0447765 1.84709 0.0585313 1.76898 0.0750664C1.69087 0.0914552 1.61423 0.110624 1.53886 0.132281C1.46348 0.154084 1.38979 0.178228 1.31779 0.205006C1.24599 0.231638 1.17609 0.260757 1.1083 0.292218C1.04029 0.323678 0.975024 0.357334 0.911861 0.393331C0.848909 0.429181 0.788483 0.467226 0.730794 0.507174C0.673106 0.547268 0.618365 0.589118 0.566571 0.63287C0.514777 0.676622 0.466142 0.72213 0.420875 0.769102C0.375609 0.816219 0.333711 0.864654 0.295181 0.914552C0.256652 0.964596 0.221702 1.01566 0.190541 1.0679C0.15917 1.12014 0.1318 1.17341 0.108009 1.22755C0.0842172 1.28169 0.0644261 1.33656 0.0484249 1.39217C0.0324236 1.44763 0.0204226 1.50352 0.012422 1.55986C0.00421084 1.6162 0.000210529 1.67268 0 1.72931V14.8052C0.00147381 14.8538 0.0151591 14.9008 0.0410559 14.946C0.0482143 14.959 0.0564255 14.9717 0.0656894 14.9842C0.0728478 14.997 0.0808485 15.0096 0.0899018 15.0219L3.50028 18.8077C3.51354 18.8224 3.52786 18.8364 3.54365 18.8497C3.55944 18.8632 3.57628 18.8758 3.59439 18.8876C3.6125 18.8996 3.63144 18.9106 3.65166 18.9208C3.67166 18.9311 3.6925 18.9403 3.7144 18.9488C3.73608 18.9571 3.75861 18.9644 3.78156 18.9709C3.80472 18.9773 3.8283 18.9827 3.85251 18.987C3.87652 18.9914 3.90094 18.9946 3.92578 18.9968C3.95042 18.999 3.97526 19 4.0001 19C4.02495 19 4.04979 18.999 4.07443 18.9968C4.09927 18.9946 4.12348 18.9914 4.1477 18.987C4.1717 18.9827 4.19549 18.9773 4.21844 18.9709C4.2416 18.9644 4.26413 18.9571 4.28581 18.9488C4.30771 18.9403 4.32855 18.9311 4.34855 18.9208C4.36877 18.9106 4.38771 18.8996 4.40582 18.8876C4.42393 18.8758 4.44077 18.8632 4.45656 18.8497C4.47214 18.8364 4.48667 18.8224 4.49993 18.8077L7.91031 15.0219C7.9701 14.9556 8.00021 14.8833 8 14.8052V1.72931C8 1.67268 7.996 1.6162 7.98779 1.55986C7.97979 1.50352 7.96779 1.44763 7.95178 1.39217C7.93578 1.33656 7.91599 1.28169 7.8922 1.22755C7.86841 1.17341 7.84083 1.12014 7.80967 1.0679C7.77851 1.01566 7.74356 0.964596 7.70503 0.914552C7.6665 0.864654 7.6246 0.816219 7.57933 0.769102C7.53386 0.72213 7.48543 0.676622 7.43364 0.63287C7.38184 0.589118 7.3271 0.547268 7.26942 0.507174C7.21173 0.467226 7.1513 0.429181 7.08835 0.393331C7.02519 0.357334 6.95971 0.323678 6.89191 0.292218C6.82412 0.260757 6.75422 0.231638 6.68221 0.205006C6.61042 0.178228 6.53673 0.154084 6.46135 0.132281C6.38598 0.110624 6.30934 0.0914552 6.23123 0.0750664C6.15312 0.0585313 6.07416 0.0447765 5.99416 0.0336555C5.91415 0.0225346 5.83351 0.0141938 5.75224 0.00863337C5.67097 0.00292656 5.5897 0.000146319 5.50801 0H2.4922ZM4.0001 17.8193L1.65339 15.2142H2.69874C2.73748 15.2142 2.7758 15.2116 2.81391 15.2064C2.8518 15.2012 2.88865 15.1934 2.92444 15.1832C2.96023 15.1728 2.99413 15.1602 3.02634 15.1453C3.05856 15.1303 3.08845 15.1134 3.11582 15.0945C3.1432 15.0755 3.16762 15.0548 3.18909 15.0325C3.21057 15.0101 3.22868 14.9865 3.24362 14.9618C3.25836 14.9369 3.26952 14.9113 3.2771 14.885C3.28468 14.8586 3.28847 14.832 3.28847 14.8052V8.82579C3.28847 8.79887 3.28468 8.77224 3.2771 8.7459C3.26952 8.71956 3.25836 8.6941 3.24362 8.66922C3.22868 8.64435 3.21057 8.62079 3.18909 8.59854C3.16762 8.57616 3.1432 8.55552 3.11561 8.5365C3.08824 8.51748 3.05856 8.50065 3.02634 8.48573C2.99413 8.4708 2.96023 8.45807 2.92444 8.44783C2.88865 8.43758 2.8518 8.42983 2.81391 8.42456C2.7758 8.41929 2.73748 8.41666 2.69874 8.41666C2.66 8.41666 2.62168 8.41929 2.58378 8.42456C2.54588 8.42983 2.50904 8.43758 2.47325 8.44783C2.43746 8.45807 2.40335 8.4708 2.37113 8.48573C2.33913 8.50065 2.30923 8.51748 2.28186 8.5365C2.25449 8.55552 2.23007 8.57616 2.2086 8.59854C2.18712 8.62079 2.1688 8.64435 2.15406 8.66922C2.13933 8.6941 2.12817 8.71956 2.12059 8.7459C2.11301 8.77224 2.10922 8.79887 2.10922 8.82579V14.3961H1.17925V3.15952H6.82096V14.688L4.0001 17.8193ZM6.82096 1.72931V2.3414H1.17925V1.72931C1.17925 1.69946 1.18157 1.66975 1.18578 1.64005C1.18999 1.61034 1.1963 1.58093 1.20473 1.55167C1.21315 1.5224 1.22368 1.49357 1.2361 1.46504C1.24873 1.43651 1.26305 1.40841 1.27968 1.3809C1.2961 1.35324 1.31442 1.32632 1.33463 1.30013C1.35505 1.27379 1.37716 1.24818 1.40095 1.22345C1.42474 1.19858 1.45043 1.17472 1.47759 1.1516C1.50496 1.12863 1.53381 1.10653 1.56412 1.08546C1.59465 1.06439 1.62644 1.04435 1.6595 1.02547C1.69277 1.00645 1.72729 0.98874 1.76309 0.972059C1.79867 0.955524 1.83551 0.940159 1.87341 0.926112C1.91131 0.912064 1.95026 0.899334 1.98984 0.88792C2.02963 0.876507 2.07006 0.86641 2.11111 0.85763C2.15217 0.848997 2.19386 0.84168 2.23597 0.835827C2.27828 0.829974 2.3206 0.825584 2.36334 0.822658C2.4063 0.819731 2.44904 0.818122 2.4922 0.818122H5.50801C5.55096 0.818122 5.59391 0.819731 5.63665 0.822658C5.67961 0.825584 5.72192 0.829974 5.76403 0.835827C5.80635 0.84168 5.84783 0.848997 5.8891 0.85763C5.93015 0.86641 5.97058 0.87636 6.01037 0.88792C6.04995 0.899334 6.0889 0.912064 6.1268 0.926112C6.1647 0.940159 6.20133 0.955524 6.23712 0.972059C6.27292 0.98874 6.30744 1.00645 6.3405 1.02532C6.37377 1.04435 6.40556 1.06439 6.43609 1.08546C6.4664 1.10653 6.49525 1.12863 6.52241 1.1516C6.54978 1.17472 6.57526 1.19858 6.59926 1.22345C6.62305 1.24818 6.64516 1.27379 6.66558 1.30013C6.68579 1.32632 6.70411 1.35324 6.72053 1.3809C6.73716 1.40841 6.75148 1.43636 6.76411 1.46504C6.77653 1.49357 6.78706 1.5224 6.79548 1.55167C6.80391 1.58093 6.81022 1.61034 6.81443 1.64005C6.81864 1.66975 6.82075 1.69946 6.82096 1.72931Z"/>
</mask>
<path d="M2.4922 0C2.41051 0.000146319 2.32903 0.00292656 2.24797 0.00863337C2.1667 0.0141938 2.08606 0.0225346 2.00605 0.0336555C1.92605 0.0447765 1.84709 0.0585313 1.76898 0.0750664C1.69087 0.0914552 1.61423 0.110624 1.53886 0.132281C1.46348 0.154084 1.38979 0.178228 1.31779 0.205006C1.24599 0.231638 1.17609 0.260757 1.1083 0.292218C1.04029 0.323678 0.975024 0.357334 0.911861 0.393331C0.848909 0.429181 0.788483 0.467226 0.730794 0.507174C0.673106 0.547268 0.618365 0.589118 0.566571 0.63287C0.514777 0.676622 0.466142 0.72213 0.420875 0.769102C0.375609 0.816219 0.333711 0.864654 0.295181 0.914552C0.256652 0.964596 0.221702 1.01566 0.190541 1.0679C0.15917 1.12014 0.1318 1.17341 0.108009 1.22755C0.0842172 1.28169 0.0644261 1.33656 0.0484249 1.39217C0.0324236 1.44763 0.0204226 1.50352 0.012422 1.55986C0.00421084 1.6162 0.000210529 1.67268 0 1.72931V14.8052C0.00147381 14.8538 0.0151591 14.9008 0.0410559 14.946C0.0482143 14.959 0.0564255 14.9717 0.0656894 14.9842C0.0728478 14.997 0.0808485 15.0096 0.0899018 15.0219L3.50028 18.8077C3.51354 18.8224 3.52786 18.8364 3.54365 18.8497C3.55944 18.8632 3.57628 18.8758 3.59439 18.8876C3.6125 18.8996 3.63144 18.9106 3.65166 18.9208C3.67166 18.9311 3.6925 18.9403 3.7144 18.9488C3.73608 18.9571 3.75861 18.9644 3.78156 18.9709C3.80472 18.9773 3.8283 18.9827 3.85251 18.987C3.87652 18.9914 3.90094 18.9946 3.92578 18.9968C3.95042 18.999 3.97526 19 4.0001 19C4.02495 19 4.04979 18.999 4.07443 18.9968C4.09927 18.9946 4.12348 18.9914 4.1477 18.987C4.1717 18.9827 4.19549 18.9773 4.21844 18.9709C4.2416 18.9644 4.26413 18.9571 4.28581 18.9488C4.30771 18.9403 4.32855 18.9311 4.34855 18.9208C4.36877 18.9106 4.38771 18.8996 4.40582 18.8876C4.42393 18.8758 4.44077 18.8632 4.45656 18.8497C4.47214 18.8364 4.48667 18.8224 4.49993 18.8077L7.91031 15.0219C7.9701 14.9556 8.00021 14.8833 8 14.8052V1.72931C8 1.67268 7.996 1.6162 7.98779 1.55986C7.97979 1.50352 7.96779 1.44763 7.95178 1.39217C7.93578 1.33656 7.91599 1.28169 7.8922 1.22755C7.86841 1.17341 7.84083 1.12014 7.80967 1.0679C7.77851 1.01566 7.74356 0.964596 7.70503 0.914552C7.6665 0.864654 7.6246 0.816219 7.57933 0.769102C7.53386 0.72213 7.48543 0.676622 7.43364 0.63287C7.38184 0.589118 7.3271 0.547268 7.26942 0.507174C7.21173 0.467226 7.1513 0.429181 7.08835 0.393331C7.02519 0.357334 6.95971 0.323678 6.89191 0.292218C6.82412 0.260757 6.75422 0.231638 6.68221 0.205006C6.61042 0.178228 6.53673 0.154084 6.46135 0.132281C6.38598 0.110624 6.30934 0.0914552 6.23123 0.0750664C6.15312 0.0585313 6.07416 0.0447765 5.99416 0.0336555C5.91415 0.0225346 5.83351 0.0141938 5.75224 0.00863337C5.67097 0.00292656 5.5897 0.000146319 5.50801 0H2.4922ZM4.0001 17.8193L1.65339 15.2142H2.69874C2.73748 15.2142 2.7758 15.2116 2.81391 15.2064C2.8518 15.2012 2.88865 15.1934 2.92444 15.1832C2.96023 15.1728 2.99413 15.1602 3.02634 15.1453C3.05856 15.1303 3.08845 15.1134 3.11582 15.0945C3.1432 15.0755 3.16762 15.0548 3.18909 15.0325C3.21057 15.0101 3.22868 14.9865 3.24362 14.9618C3.25836 14.9369 3.26952 14.9113 3.2771 14.885C3.28468 14.8586 3.28847 14.832 3.28847 14.8052V8.82579C3.28847 8.79887 3.28468 8.77224 3.2771 8.7459C3.26952 8.71956 3.25836 8.6941 3.24362 8.66922C3.22868 8.64435 3.21057 8.62079 3.18909 8.59854C3.16762 8.57616 3.1432 8.55552 3.11561 8.5365C3.08824 8.51748 3.05856 8.50065 3.02634 8.48573C2.99413 8.4708 2.96023 8.45807 2.92444 8.44783C2.88865 8.43758 2.8518 8.42983 2.81391 8.42456C2.7758 8.41929 2.73748 8.41666 2.69874 8.41666C2.66 8.41666 2.62168 8.41929 2.58378 8.42456C2.54588 8.42983 2.50904 8.43758 2.47325 8.44783C2.43746 8.45807 2.40335 8.4708 2.37113 8.48573C2.33913 8.50065 2.30923 8.51748 2.28186 8.5365C2.25449 8.55552 2.23007 8.57616 2.2086 8.59854C2.18712 8.62079 2.1688 8.64435 2.15406 8.66922C2.13933 8.6941 2.12817 8.71956 2.12059 8.7459C2.11301 8.77224 2.10922 8.79887 2.10922 8.82579V14.3961H1.17925V3.15952H6.82096V14.688L4.0001 17.8193ZM6.82096 1.72931V2.3414H1.17925V1.72931C1.17925 1.69946 1.18157 1.66975 1.18578 1.64005C1.18999 1.61034 1.1963 1.58093 1.20473 1.55167C1.21315 1.5224 1.22368 1.49357 1.2361 1.46504C1.24873 1.43651 1.26305 1.40841 1.27968 1.3809C1.2961 1.35324 1.31442 1.32632 1.33463 1.30013C1.35505 1.27379 1.37716 1.24818 1.40095 1.22345C1.42474 1.19858 1.45043 1.17472 1.47759 1.1516C1.50496 1.12863 1.53381 1.10653 1.56412 1.08546C1.59465 1.06439 1.62644 1.04435 1.6595 1.02547C1.69277 1.00645 1.72729 0.98874 1.76309 0.972059C1.79867 0.955524 1.83551 0.940159 1.87341 0.926112C1.91131 0.912064 1.95026 0.899334 1.98984 0.88792C2.02963 0.876507 2.07006 0.86641 2.11111 0.85763C2.15217 0.848997 2.19386 0.84168 2.23597 0.835827C2.27828 0.829974 2.3206 0.825584 2.36334 0.822658C2.4063 0.819731 2.44904 0.818122 2.4922 0.818122H5.50801C5.55096 0.818122 5.59391 0.819731 5.63665 0.822658C5.67961 0.825584 5.72192 0.829974 5.76403 0.835827C5.80635 0.84168 5.84783 0.848997 5.8891 0.85763C5.93015 0.86641 5.97058 0.87636 6.01037 0.88792C6.04995 0.899334 6.0889 0.912064 6.1268 0.926112C6.1647 0.940159 6.20133 0.955524 6.23712 0.972059C6.27292 0.98874 6.30744 1.00645 6.3405 1.02532C6.37377 1.04435 6.40556 1.06439 6.43609 1.08546C6.4664 1.10653 6.49525 1.12863 6.52241 1.1516C6.54978 1.17472 6.57526 1.19858 6.59926 1.22345C6.62305 1.24818 6.64516 1.27379 6.66558 1.30013C6.68579 1.32632 6.70411 1.35324 6.72053 1.3809C6.73716 1.40841 6.75148 1.43636 6.76411 1.46504C6.77653 1.49357 6.78706 1.5224 6.79548 1.55167C6.80391 1.58093 6.81022 1.61034 6.81443 1.64005C6.81864 1.66975 6.82075 1.69946 6.82096 1.72931Z" fill="#414042" stroke="#414042" stroke-width="2" mask="url(#path-1-inside-1_410_135)"/>
<mask id="path-2-inside-2_410_135" fill="white">
<path d="M2.4922 0C2.41051 0.000146319 2.32903 0.00292656 2.24797 0.00863337C2.1667 0.0141938 2.08606 0.0225346 2.00605 0.0336555C1.92605 0.0447765 1.84709 0.0585313 1.76898 0.0750664C1.69087 0.0914552 1.61423 0.110624 1.53886 0.132281C1.46348 0.154084 1.38979 0.178228 1.31779 0.205006C1.24599 0.231638 1.17609 0.260757 1.1083 0.292218C1.04029 0.323678 0.975024 0.357334 0.911861 0.393331C0.848909 0.429181 0.788483 0.467226 0.730794 0.507174C0.673106 0.547268 0.618365 0.589118 0.566571 0.63287C0.514777 0.676622 0.466142 0.72213 0.420875 0.769102C0.375609 0.816219 0.333711 0.864654 0.295181 0.914552C0.256652 0.964596 0.221702 1.01566 0.190541 1.0679C0.15917 1.12014 0.1318 1.17341 0.108009 1.22755C0.0842172 1.28169 0.0644261 1.33656 0.0484249 1.39217C0.0324236 1.44763 0.0204226 1.50352 0.012422 1.55986C0.00421084 1.6162 0.000210529 1.67268 0 1.72931V14.8052C0.00147381 14.8538 0.0151591 14.9008 0.0410559 14.946C0.0482143 14.959 0.0564255 14.9717 0.0656894 14.9842C0.0728478 14.997 0.0808485 15.0096 0.0899018 15.0219L3.50028 18.8077C3.51354 18.8224 3.52786 18.8364 3.54365 18.8497C3.55944 18.8632 3.57628 18.8758 3.59439 18.8876C3.6125 18.8996 3.63144 18.9106 3.65166 18.9208C3.67166 18.9311 3.6925 18.9403 3.7144 18.9488C3.73608 18.9571 3.75861 18.9644 3.78156 18.9709C3.80472 18.9773 3.8283 18.9827 3.85251 18.987C3.87652 18.9914 3.90094 18.9946 3.92578 18.9968C3.95042 18.999 3.97526 19 4.0001 19C4.02495 19 4.04979 18.999 4.07443 18.9968C4.09927 18.9946 4.12348 18.9914 4.1477 18.987C4.1717 18.9827 4.19549 18.9773 4.21844 18.9709C4.2416 18.9644 4.26413 18.9571 4.28581 18.9488C4.30771 18.9403 4.32855 18.9311 4.34855 18.9208C4.36877 18.9106 4.38771 18.8996 4.40582 18.8876C4.42393 18.8758 4.44077 18.8632 4.45656 18.8497C4.47214 18.8364 4.48667 18.8224 4.49993 18.8077L7.91031 15.0219C7.9701 14.9556 8.00021 14.8833 8 14.8052V1.72931C8 1.67268 7.996 1.6162 7.98779 1.55986C7.97979 1.50352 7.96779 1.44763 7.95178 1.39217C7.93578 1.33656 7.91599 1.28169 7.8922 1.22755C7.86841 1.17341 7.84083 1.12014 7.80967 1.0679C7.77851 1.01566 7.74356 0.964596 7.70503 0.914552C7.6665 0.864654 7.6246 0.816219 7.57933 0.769102C7.53386 0.72213 7.48543 0.676622 7.43364 0.63287C7.38184 0.589118 7.3271 0.547268 7.26942 0.507174C7.21173 0.467226 7.1513 0.429181 7.08835 0.393331C7.02519 0.357334 6.95971 0.323678 6.89191 0.292218C6.82412 0.260757 6.75422 0.231638 6.68221 0.205006C6.61042 0.178228 6.53673 0.154084 6.46135 0.132281C6.38598 0.110624 6.30934 0.0914552 6.23123 0.0750664C6.15312 0.0585313 6.07416 0.0447765 5.99416 0.0336555C5.91415 0.0225346 5.83351 0.0141938 5.75224 0.00863337C5.67097 0.00292656 5.5897 0.000146319 5.50801 0H2.4922ZM4.0001 17.8193L1.65339 15.2142H2.69874C2.73748 15.2142 2.7758 15.2116 2.81391 15.2064C2.8518 15.2012 2.88865 15.1934 2.92444 15.1832C2.96023 15.1728 2.99413 15.1602 3.02634 15.1453C3.05856 15.1303 3.08845 15.1134 3.11582 15.0945C3.1432 15.0755 3.16762 15.0548 3.18909 15.0325C3.21057 15.0101 3.22868 14.9865 3.24362 14.9618C3.25836 14.9369 3.26952 14.9113 3.2771 14.885C3.28468 14.8586 3.28847 14.832 3.28847 14.8052V8.82579C3.28847 8.79887 3.28468 8.77224 3.2771 8.7459C3.26952 8.71956 3.25836 8.6941 3.24362 8.66922C3.22868 8.64435 3.21057 8.62079 3.18909 8.59854C3.16762 8.57616 3.1432 8.55552 3.11561 8.5365C3.08824 8.51748 3.05856 8.50065 3.02634 8.48573C2.99413 8.4708 2.96023 8.45807 2.92444 8.44783C2.88865 8.43758 2.8518 8.42983 2.81391 8.42456C2.7758 8.41929 2.73748 8.41666 2.69874 8.41666C2.66 8.41666 2.62168 8.41929 2.58378 8.42456C2.54588 8.42983 2.50904 8.43758 2.47325 8.44783C2.43746 8.45807 2.40335 8.4708 2.37113 8.48573C2.33913 8.50065 2.30923 8.51748 2.28186 8.5365C2.25449 8.55552 2.23007 8.57616 2.2086 8.59854C2.18712 8.62079 2.1688 8.64435 2.15406 8.66922C2.13933 8.6941 2.12817 8.71956 2.12059 8.7459C2.11301 8.77224 2.10922 8.79887 2.10922 8.82579V14.3961H1.17925V3.15952H6.82096V14.688L4.0001 17.8193ZM6.82096 1.72931V2.3414H1.17925V1.72931C1.17925 1.69946 1.18157 1.66975 1.18578 1.64005C1.18999 1.61034 1.1963 1.58093 1.20473 1.55167C1.21315 1.5224 1.22368 1.49357 1.2361 1.46504C1.24873 1.43651 1.26305 1.40841 1.27968 1.3809C1.2961 1.35324 1.31442 1.32632 1.33463 1.30013C1.35505 1.27379 1.37716 1.24818 1.40095 1.22345C1.42474 1.19858 1.45043 1.17472 1.47759 1.1516C1.50496 1.12863 1.53381 1.10653 1.56412 1.08546C1.59465 1.06439 1.62644 1.04435 1.6595 1.02547C1.69277 1.00645 1.72729 0.98874 1.76309 0.972059C1.79867 0.955524 1.83551 0.940159 1.87341 0.926112C1.91131 0.912064 1.95026 0.899334 1.98984 0.88792C2.02963 0.876507 2.07006 0.86641 2.11111 0.85763C2.15217 0.848997 2.19386 0.84168 2.23597 0.835827C2.27828 0.829974 2.3206 0.825584 2.36334 0.822658C2.4063 0.819731 2.44904 0.818122 2.4922 0.818122H5.50801C5.55096 0.818122 5.59391 0.819731 5.63665 0.822658C5.67961 0.825584 5.72192 0.829974 5.76403 0.835827C5.80635 0.84168 5.84783 0.848997 5.8891 0.85763C5.93015 0.86641 5.97058 0.87636 6.01037 0.88792C6.04995 0.899334 6.0889 0.912064 6.1268 0.926112C6.1647 0.940159 6.20133 0.955524 6.23712 0.972059C6.27292 0.98874 6.30744 1.00645 6.3405 1.02532C6.37377 1.04435 6.40556 1.06439 6.43609 1.08546C6.4664 1.10653 6.49525 1.12863 6.52241 1.1516C6.54978 1.17472 6.57526 1.19858 6.59926 1.22345C6.62305 1.24818 6.64516 1.27379 6.66558 1.30013C6.68579 1.32632 6.70411 1.35324 6.72053 1.3809C6.73716 1.40841 6.75148 1.43636 6.76411 1.46504C6.77653 1.49357 6.78706 1.5224 6.79548 1.55167C6.80391 1.58093 6.81022 1.61034 6.81443 1.64005C6.81864 1.66975 6.82075 1.69946 6.82096 1.72931Z"/>
</mask>
<path d="M2.4922 0C2.41051 0.000146319 2.32903 0.00292656 2.24797 0.00863337C2.1667 0.0141938 2.08606 0.0225346 2.00605 0.0336555C1.92605 0.0447765 1.84709 0.0585313 1.76898 0.0750664C1.69087 0.0914552 1.61423 0.110624 1.53886 0.132281C1.46348 0.154084 1.38979 0.178228 1.31779 0.205006C1.24599 0.231638 1.17609 0.260757 1.1083 0.292218C1.04029 0.323678 0.975024 0.357334 0.911861 0.393331C0.848909 0.429181 0.788483 0.467226 0.730794 0.507174C0.673106 0.547268 0.618365 0.589118 0.566571 0.63287C0.514777 0.676622 0.466142 0.72213 0.420875 0.769102C0.375609 0.816219 0.333711 0.864654 0.295181 0.914552C0.256652 0.964596 0.221702 1.01566 0.190541 1.0679C0.15917 1.12014 0.1318 1.17341 0.108009 1.22755C0.0842172 1.28169 0.0644261 1.33656 0.0484249 1.39217C0.0324236 1.44763 0.0204226 1.50352 0.012422 1.55986C0.00421084 1.6162 0.000210529 1.67268 0 1.72931V14.8052C0.00147381 14.8538 0.0151591 14.9008 0.0410559 14.946C0.0482143 14.959 0.0564255 14.9717 0.0656894 14.9842C0.0728478 14.997 0.0808485 15.0096 0.0899018 15.0219L3.50028 18.8077C3.51354 18.8224 3.52786 18.8364 3.54365 18.8497C3.55944 18.8632 3.57628 18.8758 3.59439 18.8876C3.6125 18.8996 3.63144 18.9106 3.65166 18.9208C3.67166 18.9311 3.6925 18.9403 3.7144 18.9488C3.73608 18.9571 3.75861 18.9644 3.78156 18.9709C3.80472 18.9773 3.8283 18.9827 3.85251 18.987C3.87652 18.9914 3.90094 18.9946 3.92578 18.9968C3.95042 18.999 3.97526 19 4.0001 19C4.02495 19 4.04979 18.999 4.07443 18.9968C4.09927 18.9946 4.12348 18.9914 4.1477 18.987C4.1717 18.9827 4.19549 18.9773 4.21844 18.9709C4.2416 18.9644 4.26413 18.9571 4.28581 18.9488C4.30771 18.9403 4.32855 18.9311 4.34855 18.9208C4.36877 18.9106 4.38771 18.8996 4.40582 18.8876C4.42393 18.8758 4.44077 18.8632 4.45656 18.8497C4.47214 18.8364 4.48667 18.8224 4.49993 18.8077L7.91031 15.0219C7.9701 14.9556 8.00021 14.8833 8 14.8052V1.72931C8 1.67268 7.996 1.6162 7.98779 1.55986C7.97979 1.50352 7.96779 1.44763 7.95178 1.39217C7.93578 1.33656 7.91599 1.28169 7.8922 1.22755C7.86841 1.17341 7.84083 1.12014 7.80967 1.0679C7.77851 1.01566 7.74356 0.964596 7.70503 0.914552C7.6665 0.864654 7.6246 0.816219 7.57933 0.769102C7.53386 0.72213 7.48543 0.676622 7.43364 0.63287C7.38184 0.589118 7.3271 0.547268 7.26942 0.507174C7.21173 0.467226 7.1513 0.429181 7.08835 0.393331C7.02519 0.357334 6.95971 0.323678 6.89191 0.292218C6.82412 0.260757 6.75422 0.231638 6.68221 0.205006C6.61042 0.178228 6.53673 0.154084 6.46135 0.132281C6.38598 0.110624 6.30934 0.0914552 6.23123 0.0750664C6.15312 0.0585313 6.07416 0.0447765 5.99416 0.0336555C5.91415 0.0225346 5.83351 0.0141938 5.75224 0.00863337C5.67097 0.00292656 5.5897 0.000146319 5.50801 0H2.4922ZM4.0001 17.8193L1.65339 15.2142H2.69874C2.73748 15.2142 2.7758 15.2116 2.81391 15.2064C2.8518 15.2012 2.88865 15.1934 2.92444 15.1832C2.96023 15.1728 2.99413 15.1602 3.02634 15.1453C3.05856 15.1303 3.08845 15.1134 3.11582 15.0945C3.1432 15.0755 3.16762 15.0548 3.18909 15.0325C3.21057 15.0101 3.22868 14.9865 3.24362 14.9618C3.25836 14.9369 3.26952 14.9113 3.2771 14.885C3.28468 14.8586 3.28847 14.832 3.28847 14.8052V8.82579C3.28847 8.79887 3.28468 8.77224 3.2771 8.7459C3.26952 8.71956 3.25836 8.6941 3.24362 8.66922C3.22868 8.64435 3.21057 8.62079 3.18909 8.59854C3.16762 8.57616 3.1432 8.55552 3.11561 8.5365C3.08824 8.51748 3.05856 8.50065 3.02634 8.48573C2.99413 8.4708 2.96023 8.45807 2.92444 8.44783C2.88865 8.43758 2.8518 8.42983 2.81391 8.42456C2.7758 8.41929 2.73748 8.41666 2.69874 8.41666C2.66 8.41666 2.62168 8.41929 2.58378 8.42456C2.54588 8.42983 2.50904 8.43758 2.47325 8.44783C2.43746 8.45807 2.40335 8.4708 2.37113 8.48573C2.33913 8.50065 2.30923 8.51748 2.28186 8.5365C2.25449 8.55552 2.23007 8.57616 2.2086 8.59854C2.18712 8.62079 2.1688 8.64435 2.15406 8.66922C2.13933 8.6941 2.12817 8.71956 2.12059 8.7459C2.11301 8.77224 2.10922 8.79887 2.10922 8.82579V14.3961H1.17925V3.15952H6.82096V14.688L4.0001 17.8193ZM6.82096 1.72931V2.3414H1.17925V1.72931C1.17925 1.69946 1.18157 1.66975 1.18578 1.64005C1.18999 1.61034 1.1963 1.58093 1.20473 1.55167C1.21315 1.5224 1.22368 1.49357 1.2361 1.46504C1.24873 1.43651 1.26305 1.40841 1.27968 1.3809C1.2961 1.35324 1.31442 1.32632 1.33463 1.30013C1.35505 1.27379 1.37716 1.24818 1.40095 1.22345C1.42474 1.19858 1.45043 1.17472 1.47759 1.1516C1.50496 1.12863 1.53381 1.10653 1.56412 1.08546C1.59465 1.06439 1.62644 1.04435 1.6595 1.02547C1.69277 1.00645 1.72729 0.98874 1.76309 0.972059C1.79867 0.955524 1.83551 0.940159 1.87341 0.926112C1.91131 0.912064 1.95026 0.899334 1.98984 0.88792C2.02963 0.876507 2.07006 0.86641 2.11111 0.85763C2.15217 0.848997 2.19386 0.84168 2.23597 0.835827C2.27828 0.829974 2.3206 0.825584 2.36334 0.822658C2.4063 0.819731 2.44904 0.818122 2.4922 0.818122H5.50801C5.55096 0.818122 5.59391 0.819731 5.63665 0.822658C5.67961 0.825584 5.72192 0.829974 5.76403 0.835827C5.80635 0.84168 5.84783 0.848997 5.8891 0.85763C5.93015 0.86641 5.97058 0.87636 6.01037 0.88792C6.04995 0.899334 6.0889 0.912064 6.1268 0.926112C6.1647 0.940159 6.20133 0.955524 6.23712 0.972059C6.27292 0.98874 6.30744 1.00645 6.3405 1.02532C6.37377 1.04435 6.40556 1.06439 6.43609 1.08546C6.4664 1.10653 6.49525 1.12863 6.52241 1.1516C6.54978 1.17472 6.57526 1.19858 6.59926 1.22345C6.62305 1.24818 6.64516 1.27379 6.66558 1.30013C6.68579 1.32632 6.70411 1.35324 6.72053 1.3809C6.73716 1.40841 6.75148 1.43636 6.76411 1.46504C6.77653 1.49357 6.78706 1.5224 6.79548 1.55167C6.80391 1.58093 6.81022 1.61034 6.81443 1.64005C6.81864 1.66975 6.82075 1.69946 6.82096 1.72931Z" fill="#414042" stroke="#414042" stroke-width="2" mask="url(#path-2-inside-2_410_135)"/>
</svg>
