<svg width="14" height="25" viewBox="0 0 14 25" fill="none" xmlns="http://www.w3.org/2000/svg">
<path d="M0.00483638 12.2748C0.00393423 11.8652 0.164635 11.4682 0.459044 11.1528L10.3331 0.63336C10.6684 0.27532 11.15 0.0501621 11.6722 0.00741874C12.1944 -0.0353246 12.7144 0.107848 13.1176 0.40544C13.5209 0.703031 13.7746 1.13067 13.8227 1.59427C13.8708 2.05787 13.7096 2.51946 13.3744 2.8775L4.52718 12.2748L13.0584 21.6722C13.2224 21.8515 13.3449 22.0579 13.4189 22.2794C13.4928 22.5009 13.5167 22.7332 13.4891 22.9629C13.4616 23.1926 13.3832 23.4152 13.2585 23.618C13.1337 23.8207 12.965 23.9996 12.7622 24.1442C12.5591 24.3048 12.3209 24.4264 12.0625 24.5014C11.804 24.5765 11.5309 24.6033 11.2602 24.5802C10.9895 24.5572 10.7271 24.4848 10.4895 24.3675C10.2518 24.2503 10.0439 24.0907 9.87894 23.8988L0.340555 13.3794C0.0926841 13.0549 -0.0255181 12.666 0.00483638 12.2748Z" fill="#414042"/>
</svg>
