<svg width="26" height="26" viewBox="0 0 26 26" fill="none" xmlns="http://www.w3.org/2000/svg">
<path d="M0.592788 13.0981C0.591886 12.6884 0.752587 12.2914 1.047 11.976L10.9211 1.4566C11.2563 1.09856 11.738 0.873404 12.2602 0.830661C12.7824 0.787918 13.3023 0.93109 13.7056 1.22868C14.1089 1.52627 14.3625 1.95391 14.4106 2.41751C14.4588 2.88111 14.2975 3.3427 13.9623 3.70074L5.11513 13.0981L13.6464 22.4954C13.8104 22.6748 13.9329 22.8811 14.0068 23.1026C14.0807 23.3241 14.1046 23.5564 14.0771 23.7861C14.0496 24.0159 13.9712 24.2385 13.8464 24.4412C13.7217 24.644 13.553 24.8228 13.3501 24.9675C13.1471 25.128 12.9089 25.2497 12.6504 25.3247C12.392 25.3997 12.1188 25.4265 11.8482 25.4035C11.5775 25.3804 11.3151 25.308 11.0774 25.1908C10.8397 25.0735 10.6319 24.9139 10.4669 24.722L0.928507 14.2026C0.680636 13.8781 0.562434 13.4892 0.592788 13.0981Z" fill="#414042"/>
<path d="M11.3504 13.0981C11.3495 12.6884 11.5102 12.2914 11.8046 11.976L21.6787 1.4566C22.0139 1.09856 22.4956 0.873404 23.0178 0.830661C23.54 0.787918 24.0599 0.93109 24.4632 1.22868C24.8665 1.52627 25.1201 1.95391 25.1683 2.41751C25.2164 2.88111 25.0552 3.3427 24.72 3.70074L15.8728 13.0981L24.404 22.4954C24.568 22.6748 24.6905 22.8811 24.7644 23.1026C24.8384 23.3241 24.8622 23.5564 24.8347 23.7861C24.8072 24.0159 24.7288 24.2385 24.604 24.4412C24.4793 24.644 24.3106 24.8228 24.1078 24.9675C23.9047 25.128 23.6665 25.2497 23.408 25.3247C23.1496 25.3997 22.8765 25.4265 22.6058 25.4035C22.3351 25.3804 22.0727 25.308 21.835 25.1908C21.5974 25.0735 21.3895 24.9139 21.2245 24.722L11.6861 14.2026C11.4383 13.8781 11.3201 13.4892 11.3504 13.0981Z" fill="#414042"/>
</svg>
