<svg width="84" height="84" viewBox="0 0 84 84" fill="none" xmlns="http://www.w3.org/2000/svg">
<path d="M41.9993 9.625C29.0843 9.625 18.5493 20.16 18.5493 33.075C18.5493 49.105 39.5493 72.695 40.4243 73.675C41.2643 74.62 42.7343 74.62 43.5743 73.675C44.4843 72.695 65.4493 49.105 65.4493 33.075C65.4493 20.16 54.9143 9.625 41.9993 9.625Z" stroke="#E6E7E8" stroke-width="5.25" stroke-linecap="round" stroke-linejoin="round"/>
<path d="M43.3479 41.2483C47.8723 40.5281 50.9562 36.2765 50.2361 31.7522C49.5159 27.2278 45.2644 24.1438 40.74 24.864C36.2156 25.5842 33.1317 29.8357 33.8518 34.3601C34.572 38.8845 38.8235 41.9685 43.3479 41.2483Z" stroke="#E6E7E8" stroke-width="5.25" stroke-linecap="round" stroke-linejoin="round"/>
</svg>
