<svg width="114" height="114" viewBox="0 0 114 114" fill="none" xmlns="http://www.w3.org/2000/svg">
<path d="M89.8828 35.3244L71.4087 16.8503V35.3244H89.8828ZM92.7743 42.4463H64.2868V13.9588H21.5556V99.4213H92.7743V42.4463ZM17.9947 6.83691H71.4087L99.8962 35.3244V102.982C99.8962 104.022 99.5627 104.875 98.8956 105.543C98.2285 106.21 97.3751 106.543 96.3353 106.543H17.9947C16.9549 106.543 16.1014 106.21 15.4343 105.543C14.7673 104.875 14.4337 104.022 14.4337 102.982V10.3979C14.4337 9.35806 14.7673 8.50462 15.4343 7.83754C16.1014 7.17045 16.9549 6.83691 17.9947 6.83691ZM53.3832 71.6032L73.5239 51.4626L78.6445 56.4693L53.3832 81.7306L35.7993 64.0363L40.806 59.0296L53.3832 71.6032Z" fill="#E6E7E8"/>
</svg>
