<svg width="141" height="141" viewBox="0 0 141 141" fill="none" xmlns="http://www.w3.org/2000/svg">
<path d="M110.684 44.1526L87.9819 21.4502V44.1526H110.684ZM114.238 52.9045H79.23V17.8969H26.7187V122.92H114.238V52.9045ZM22.3427 9.14502H87.9819L122.989 44.1526V127.296C122.989 128.573 122.58 129.622 121.76 130.442C120.94 131.262 119.891 131.671 118.613 131.671H22.3427C21.0649 131.671 20.0162 131.262 19.1964 130.442C18.3766 129.622 17.9668 128.573 17.9668 127.296V13.521C17.9668 12.2432 18.3766 11.1944 19.1964 10.3747C20.0162 9.5549 21.0649 9.14502 22.3427 9.14502ZM65.8308 88.7347L90.5812 63.9843L96.8738 70.1369L65.8308 101.18L44.2224 79.4358L50.375 73.2832L65.8308 88.7347Z" fill="#2D83BA"/>
</svg>
