<svg width="14" height="25" viewBox="0 0 14 25" fill="none" xmlns="http://www.w3.org/2000/svg">
<path d="M13.8262 12.3134C13.8271 12.7231 13.6664 13.1201 13.372 13.4355L3.49791 23.9549C3.1627 24.3129 2.68102 24.5381 2.15883 24.5808C1.63663 24.6236 1.1167 24.4804 0.713408 24.1828C0.310116 23.8852 0.0565021 23.4576 0.00835658 22.994C-0.039789 22.5304 0.121478 22.0688 0.456681 21.7108L9.30388 12.3134L0.772655 2.91607C0.608615 2.73674 0.486113 2.53039 0.412192 2.30889C0.338271 2.08739 0.314388 1.8551 0.341915 1.62537C0.369443 1.39565 0.447837 1.17302 0.572594 0.970282C0.697351 0.767544 0.866011 0.588694 1.06888 0.444012C1.27193 0.283451 1.51015 0.161848 1.7686 0.0868226C2.02705 0.011797 2.30017 -0.0150317 2.57085 0.00801096C2.84152 0.0310536 3.10392 0.103472 3.3416 0.220734C3.57929 0.337996 3.78713 0.497574 3.95212 0.689467L13.4905 11.2089C13.7384 11.5334 13.8566 11.9223 13.8262 12.3134Z" fill="#414042"/>
</svg>
