<svg width="26" height="25" viewBox="0 0 26 25" fill="none" xmlns="http://www.w3.org/2000/svg">
<path d="M25.4073 12.6666C25.4082 13.0762 25.2475 13.4732 24.9531 13.7886L15.079 24.308C14.7438 24.6661 14.2621 24.8912 13.7399 24.934C13.2177 24.9767 12.6978 24.8336 12.2945 24.536C11.8912 24.2384 11.6376 23.8107 11.5894 23.3471C11.5413 22.8835 11.7025 22.4219 12.0377 22.0639L20.8849 12.6666L12.3537 3.26922C12.1897 3.08989 12.0672 2.88354 11.9932 2.66204C11.9193 2.44053 11.8954 2.20825 11.923 1.97852C11.9505 1.7488 12.0289 1.52617 12.1536 1.32343C12.2784 1.12069 12.4471 0.941841 12.6499 0.797159C12.853 0.636599 13.0912 0.514996 13.3497 0.43997C13.6081 0.364945 13.8812 0.338116 14.1519 0.361158C14.4226 0.384201 14.685 0.456619 14.9227 0.573881C15.1603 0.691143 15.3682 0.850721 15.5332 1.04261L25.0716 11.562C25.3194 11.8865 25.4376 12.2754 25.4073 12.6666Z" fill="#414042"/>
<path d="M14.6497 12.6666C14.6506 13.0762 14.4899 13.4732 14.1955 13.7886L4.32139 24.308C3.98619 24.6661 3.50451 24.8912 2.98231 24.934C2.46012 24.9767 1.94019 24.8336 1.53689 24.536C1.1336 24.2384 0.879988 23.8107 0.831843 23.3471C0.783697 22.8835 0.944964 22.4219 1.28017 22.0639L10.1274 12.6666L1.59614 3.26922C1.4321 3.08989 1.3096 2.88354 1.23568 2.66204C1.16176 2.44053 1.13787 2.20825 1.1654 1.97852C1.19293 1.7488 1.27132 1.52617 1.39608 1.32343C1.52084 1.12069 1.6895 0.941841 1.89236 0.797159C2.09542 0.636599 2.33363 0.514996 2.59209 0.43997C2.85054 0.364945 3.12366 0.338116 3.39433 0.361158C3.66501 0.384201 3.92741 0.456619 4.16509 0.573881C4.40277 0.691143 4.61062 0.850721 4.7756 1.04261L14.314 11.562C14.5619 11.8865 14.6801 12.2754 14.6497 12.6666Z" fill="#414042"/>
</svg>
