<svg width="107" height="107" viewBox="0 0 107 107" fill="none" xmlns="http://www.w3.org/2000/svg">
<path d="M23.226 13.0315V92.8154H89.7127V13.0315H23.226ZM19.9017 6.38281H93.037C94.0077 6.38281 94.8044 6.69419 95.4272 7.31695C96.0499 7.93971 96.3613 8.73644 96.3613 9.70714V96.1398C96.3613 97.1105 96.0499 97.9072 95.4272 98.53C94.8044 99.1527 94.0077 99.4641 93.037 99.4641H19.9017C18.931 99.4641 18.1343 99.1527 17.5115 98.53C16.8888 97.9072 16.5774 97.1105 16.5774 96.1398V9.70714C16.5774 8.73644 16.8888 7.93971 17.5115 7.31695C18.1343 6.69419 18.931 6.38281 19.9017 6.38281ZM73.091 13.0315H79.7397V92.8154H73.091V13.0315ZM13.253 19.6801H26.5504C28.7666 19.6801 29.8747 20.7882 29.8747 23.0045C29.8747 25.2207 28.7666 26.3288 26.5504 26.3288H13.253C11.0368 26.3288 9.92871 25.2207 9.92871 23.0045C9.92871 20.7882 11.0368 19.6801 13.253 19.6801ZM13.253 39.6261H26.5504C28.7666 39.6261 29.8747 40.7342 29.8747 42.9505C29.8747 45.1667 28.7666 46.2748 26.5504 46.2748H13.253C11.0368 46.2748 9.92871 45.1667 9.92871 42.9505C9.92871 40.7342 11.0368 39.6261 13.253 39.6261ZM13.253 59.5721H26.5504C28.7666 59.5721 29.8747 60.6802 29.8747 62.8964C29.8747 65.1127 28.7666 66.2208 26.5504 66.2208H13.253C11.0368 66.2208 9.92871 65.1127 9.92871 62.8964C9.92871 60.6802 11.0368 59.5721 13.253 59.5721ZM13.253 79.5181H26.5504C28.7666 79.5181 29.8747 80.6262 29.8747 82.8424C29.8747 85.0587 28.7666 86.1668 26.5504 86.1668H13.253C11.0368 86.1668 9.92871 85.0587 9.92871 82.8424C9.92871 80.6262 11.0368 79.5181 13.253 79.5181Z" fill="#E6E7E8"/>
</svg>
