<svg width="141" height="141" viewBox="0 0 141 141" fill="none" xmlns="http://www.w3.org/2000/svg">
<path d="M31.3165 17.8969V122.92H118.835V17.8969H31.3165ZM26.9405 9.14502H123.211C124.489 9.14502 125.538 9.5549 126.358 10.3747C127.177 11.1944 127.587 12.2432 127.587 13.521V127.296C127.587 128.573 127.177 129.622 126.358 130.442C125.538 131.262 124.489 131.671 123.211 131.671H26.9405C25.6627 131.671 24.614 131.262 23.7942 130.442C22.9745 129.622 22.5646 128.573 22.5646 127.296V13.521C22.5646 12.2432 22.9745 11.1944 23.7942 10.3747C24.614 9.5549 25.6627 9.14502 26.9405 9.14502ZM96.9556 17.8969H105.708V122.92H96.9556V17.8969ZM18.1886 26.6488H35.6924C38.6097 26.6488 40.0683 28.1074 40.0683 31.0247C40.0683 33.942 38.6097 35.4007 35.6924 35.4007H18.1886C15.2713 35.4007 13.8127 33.942 13.8127 31.0247C13.8127 28.1074 15.2713 26.6488 18.1886 26.6488ZM18.1886 52.9045H35.6924C38.6097 52.9045 40.0683 54.3631 40.0683 57.2804C40.0683 60.1977 38.6097 61.6563 35.6924 61.6563H18.1886C15.2713 61.6563 13.8127 60.1977 13.8127 57.2804C13.8127 54.3631 15.2713 52.9045 18.1886 52.9045ZM18.1886 79.1601H35.6924C38.6097 79.1601 40.0683 80.6188 40.0683 83.5361C40.0683 86.4534 38.6097 87.912 35.6924 87.912H18.1886C15.2713 87.912 13.8127 86.4534 13.8127 83.5361C13.8127 80.6188 15.2713 79.1601 18.1886 79.1601ZM18.1886 105.416H35.6924C38.6097 105.416 40.0683 106.874 40.0683 109.792C40.0683 112.709 38.6097 114.168 35.6924 114.168H18.1886C15.2713 114.168 13.8127 112.709 13.8127 109.792C13.8127 106.874 15.2713 105.416 18.1886 105.416Z" fill="#2D83BA"/>
</svg>
