<svg width="20" height="20" viewBox="0 0 20 20" fill="none" xmlns="http://www.w3.org/2000/svg">
<path d="M0.0738087 7.37322C0.267609 6.75113 0.797773 6.33576 1.42441 6.31522L6.64773 6.14378L8.41819 1.0132C8.63054 0.397659 9.17284 0 9.79976 0C10.4268 0 10.9691 0.397659 11.1815 1.0132L12.9519 6.14378L18.1753 6.31522C18.8019 6.33576 19.3321 6.75113 19.5257 7.37322C19.7195 7.99545 19.5246 8.65653 19.0292 9.05762L14.9001 12.3998L16.3578 17.6363C16.5328 18.2645 16.318 18.9189 15.8108 19.3034C15.3035 19.688 14.6409 19.6989 14.1222 19.3311L9.79976 16.2662L5.47751 19.3311C5.22477 19.5103 4.93793 19.5996 4.65151 19.5996C4.34996 19.5996 4.04899 19.5006 3.78883 19.3034C3.28164 18.9189 3.06686 18.2645 3.24182 17.6363L4.69974 12.3998L0.570438 9.05762C0.0750923 8.65653 -0.119848 7.99545 0.0738087 7.37322ZM1.15412 8.27242L5.33038 11.6528C5.61237 11.8811 5.73025 12.2597 5.63064 12.6174L4.15616 17.9134C4.0928 18.1411 4.16473 18.3602 4.34854 18.4996C4.53235 18.6389 4.75426 18.6427 4.94221 18.5093L9.31398 15.4095C9.46154 15.3048 9.63065 15.2526 9.7999 15.2526C9.96902 15.2526 10.1383 15.3048 10.2858 15.4095L14.6575 18.5093C14.8454 18.6425 15.0673 18.6389 15.2513 18.4996C15.4351 18.3602 15.5069 18.1411 15.4435 17.9134L13.969 12.6174C13.8694 12.2596 13.9874 11.881 14.2693 11.6528L18.4455 8.27242C18.6251 8.12716 18.6904 7.90571 18.6201 7.68024C18.5499 7.45477 18.3725 7.31577 18.1453 7.30818L12.8625 7.1348C12.5057 7.12319 12.1971 6.88924 12.0761 6.53876L10.2857 1.34984C10.2086 1.12675 10.027 0.993553 9.79976 0.993553C9.57271 0.993553 9.3909 1.12675 9.31398 1.34984L7.52354 6.53891C7.40252 6.88924 7.09384 7.12319 6.73721 7.13495L1.45438 7.30833C1.22719 7.31577 1.04966 7.45477 0.979443 7.68024C0.909229 7.90571 0.974449 8.12716 1.15412 8.27242Z" fill="#414042"/>
</svg>
