<svg width="114" height="114" viewBox="0 0 114 114" fill="none" xmlns="http://www.w3.org/2000/svg">
<path d="M56.88 99.4213C64.9657 99.1981 71.6793 96.4159 77.0207 91.0745C82.3621 85.733 85.1443 79.0195 85.3675 70.9338C85.1443 62.8481 82.3621 56.1345 77.0207 50.7931C71.6793 45.4517 64.9657 42.6694 56.88 42.4463C48.7943 42.6694 42.0807 45.4517 36.7393 50.7931C31.3979 56.1345 28.6157 62.8481 28.3925 70.9338C28.6157 79.0195 31.3979 85.733 36.7393 91.0745C42.0807 96.4159 48.7943 99.1981 56.88 99.4213ZM56.88 106.543C46.7907 106.32 38.3892 102.852 31.6757 96.1381C24.9621 89.4246 21.4938 81.0231 21.2706 70.9338C21.4938 60.8445 24.9621 52.443 31.6757 45.7295C38.3892 39.0159 46.7907 35.5476 56.88 35.3244C66.9693 35.5476 75.3708 39.0159 82.0843 45.7295C88.7979 52.443 92.2662 60.8445 92.4894 70.9338C92.2662 81.0231 88.7979 89.4246 82.0843 96.1381C75.3708 102.852 66.9693 106.32 56.88 106.543ZM64.0019 13.9588H49.7581V36.2146C52.1321 35.6212 54.506 35.3244 56.88 35.3244C59.0308 35.3244 61.4048 35.6212 64.0019 36.2146V13.9588ZM71.1237 13.9588V38.4402C73.868 39.4041 76.7619 40.6658 79.8053 42.2255L84.1461 13.9588H71.1273H71.1237ZM42.6363 13.9588H29.6175L33.9582 42.2255C36.9993 40.6682 39.8931 39.4064 42.6398 38.4402V13.9588H42.6363ZM25.3871 6.83691H88.3729C89.4127 6.83691 90.284 7.24524 90.9866 8.06188C91.6893 8.87852 91.9671 9.84353 91.8199 10.9569L85.3639 53.1327C72.6775 46.0108 63.1817 42.4499 56.8764 42.4499C50.5712 42.4499 41.0754 46.0108 28.3889 53.1327L21.933 10.9569C21.7834 9.84353 22.0612 8.87852 22.7662 8.06188C23.4713 7.24524 24.3425 6.83691 25.38 6.83691H25.3871Z" fill="#E6E7E8"/>
</svg>
