<svg width="141" height="141" viewBox="0 0 141 141" fill="none" xmlns="http://www.w3.org/2000/svg">
<path d="M70.3848 122.92C80.3211 122.645 88.5712 119.226 95.1351 112.662C101.699 106.098 105.118 97.8483 105.392 87.912C105.118 77.9757 101.699 69.7256 95.1351 63.1617C88.5712 56.5978 80.3211 53.1787 70.3848 52.9045C60.4485 53.1787 52.1984 56.5978 45.6345 63.1617C39.0705 69.7256 35.6515 77.9757 35.3773 87.912C35.6515 97.8483 39.0705 106.098 45.6345 112.662C52.1984 119.226 60.4485 122.645 70.3848 122.92ZM70.3848 131.671C57.9863 131.397 47.662 127.135 39.4119 118.885C31.1618 110.635 26.8996 100.311 26.6254 87.912C26.8996 75.5135 31.1618 65.1892 39.4119 56.9391C47.662 48.689 57.9863 44.4268 70.3848 44.1526C82.7833 44.4268 93.1076 48.689 101.358 56.9391C109.608 65.1892 113.87 75.5135 114.144 87.912C113.87 100.311 109.608 110.635 101.358 118.885C93.1076 127.135 82.7833 131.397 70.3848 131.671ZM79.1367 17.8969H61.6329V45.2466C64.5502 44.5172 67.4675 44.1526 70.3848 44.1526C73.0279 44.1526 75.9452 44.5172 79.1367 45.2466V17.8969ZM87.8886 17.8969V47.9815C91.261 49.1659 94.8172 50.7165 98.5571 52.6332L103.891 17.8969H87.893H87.8886ZM52.881 17.8969H36.8826L42.2169 52.6332C45.9539 50.7194 49.5101 49.1689 52.8854 47.9815V17.8969H52.881ZM31.684 9.14502H109.086C110.363 9.14502 111.434 9.64679 112.298 10.6503C113.161 11.6539 113.502 12.8398 113.322 14.208L105.388 66.0367C89.798 57.2848 78.1288 52.9088 70.3804 52.9088C62.6321 52.9088 50.9629 57.2848 35.3729 66.0367L27.4393 14.208C27.2555 12.8398 27.5968 11.6539 28.4633 10.6503C29.3297 9.64679 30.4003 9.14502 31.6752 9.14502H31.684Z" fill="#2D83BA"/>
</svg>
