<svg width="48" height="48" viewBox="0 0 48 48" fill="none" xmlns="http://www.w3.org/2000/svg">
<path d="M39.9049 15.8405C39.9293 16.1931 39.9293 16.5457 39.9293 16.9016C39.9293 27.7454 31.6742 40.2516 16.5793 40.2516V40.2451C12.1203 40.2516 7.75381 38.9743 4 36.566C4.64839 36.644 5.30002 36.683 5.95328 36.6847C9.64859 36.6879 13.2383 35.448 16.1454 33.1648C12.6338 33.0982 9.55434 30.8086 8.47857 27.4659C9.70871 27.7031 10.9762 27.6544 12.1836 27.3245C8.35507 26.551 5.60065 23.1872 5.60065 19.2806C5.60065 19.2449 5.60065 19.2108 5.60065 19.1766C6.74142 19.812 8.01869 20.1646 9.32521 20.2036C5.71928 17.7937 4.60776 12.9967 6.78529 9.2461C10.9519 14.3731 17.0993 17.4899 23.6986 17.8197C23.0372 14.9694 23.9407 11.9826 26.0727 9.97898C29.378 6.87194 34.5765 7.03119 37.6835 10.3349C39.5214 9.97248 41.283 9.2981 42.895 8.34258C42.2823 10.2422 41.0002 11.8559 39.2874 12.8813C40.9141 12.6895 42.5034 12.254 44 11.5894C42.8982 13.2404 41.5105 14.6786 39.9049 15.8405Z" fill="#3A3A3C"/>
</svg>
